<svg aria-hidden="true" style="position: absolute; width: 0; height: 0; overflow: hidden;" version="1.1" xmlns="http://www.w3.org/2000/svg" xmlns:xlink="http://www.w3.org/1999/xlink">
<defs>

<symbol id="logo" viewBox="0 0 216 32">
<path d="M214.388 1h-7.204v29.561h7.204v-29.561z"></path>
<path d="M155.922 29.819c-2.052-2.62-10.785-13.667-11.615-14.715 0.131-0.131 8.733-11.222 10.436-13.405l0.568-0.742h-8.296l-8.864 11.789h-8.253v-11.746h-7.205v29.561h7.205v-12.095c1.659 0 7.379 0 8.689 0l9.388 12.095h8.471l-0.524-0.742z"></path>
<path d="M25.058 1h-8.602l-16.112 29.561h8.078l3.144-5.807h18.688l3.187 5.807h7.903l-16.287-29.561zM20.997 7.768l6.157 11.309h-12.532l6.069-11.309h0.306z"></path>
<path d="M184.608 1h-8.558l-16.112 29.561h8.078l3.144-5.807h18.689l3.187 5.807h7.903l-16.33-29.561zM180.547 7.768l6.157 11.309h-12.575l6.069-11.309h0.349z"></path>
<path d="M82.652 1v6.681h13.536v22.88h7.161v-22.88h13.492v-6.681h-34.189z"></path>
<path d="M72.435 20.474c3.362-1.79 5.502-5.327 5.502-9.126 0-5.589-4.454-10.305-9.999-10.348-5.589 0-22.531 0-22.531 0v29.561h7.205v-9.039h12.532l6.855 9.039h8.515l-8.078-10.087zM71.169 11.523c0 1.31-0.611 2.489-1.616 3.231-0.568 0.437-1.31 0.83-2.096 0.83-3.886 0-14.89 0.044-14.89 0.044v-8.078h15.021c0.961 0 1.878 0.437 2.532 1.179 0.699 0.786 1.048 1.79 1.048 2.795z"></path>
</symbol>

<symbol id="plus" viewBox="0 0 30 32">
<path d="M15.238 1.371c-8.079 0-14.629 6.55-14.629 14.629s6.55 14.629 14.629 14.629c8.079 0 14.629-6.55 14.629-14.629s-6.55-14.629-14.629-14.629zM22.552 17.219h-6.095v6.095c0 0.674-0.546 1.219-1.219 1.219s-1.219-0.545-1.219-1.219v-6.095h-6.095c-0.673 0-1.219-0.545-1.219-1.219s0.546-1.219 1.219-1.219h6.095v-6.095c0-0.674 0.546-1.219 1.219-1.219s1.219 0.545 1.219 1.219v6.095h6.095c0.673 0 1.219 0.545 1.219 1.219s-0.546 1.219-1.219 1.219z"></path>
</symbol>
</defs>
</svg>
